<svg width="152" height="33" viewBox="0 0 152 33" fill="none" xmlns="http://www.w3.org/2000/svg">
<path d="M44.1136 12.8409L42.3068 13.3523C42.1932 13.0511 42.0256 12.7585 41.804 12.4744C41.5881 12.1847 41.2926 11.946 40.9176 11.7585C40.5426 11.571 40.0625 11.4773 39.4773 11.4773C38.6761 11.4773 38.0085 11.6619 37.4744 12.0312C36.946 12.3949 36.6818 12.858 36.6818 13.4205C36.6818 13.9205 36.8636 14.3153 37.2273 14.6051C37.5909 14.8949 38.1591 15.1364 38.9318 15.3295L40.875 15.8068C42.0455 16.0909 42.9176 16.5256 43.4915 17.1108C44.0653 17.6903 44.3523 18.4375 44.3523 19.3523C44.3523 20.1023 44.1364 20.7727 43.7045 21.3636C43.2784 21.9545 42.6818 22.4205 41.9148 22.7614C41.1477 23.1023 40.2557 23.2727 39.2386 23.2727C37.9034 23.2727 36.7983 22.983 35.9233 22.4034C35.0483 21.8239 34.4943 20.9773 34.2614 19.8636L36.1705 19.3864C36.3523 20.0909 36.696 20.6193 37.2017 20.9716C37.7131 21.3239 38.3807 21.5 39.2045 21.5C40.142 21.5 40.8864 21.3011 41.4375 20.9034C41.9943 20.5 42.2727 20.017 42.2727 19.4545C42.2727 19 42.1136 18.6193 41.7955 18.3125C41.4773 18 40.9886 17.767 40.3295 17.6136L38.1477 17.1023C36.9489 16.8182 36.0682 16.3778 35.5057 15.7812C34.9489 15.179 34.6705 14.4261 34.6705 13.5227C34.6705 12.7841 34.8778 12.1307 35.2926 11.5625C35.7131 10.9943 36.2841 10.5483 37.0057 10.2244C37.733 9.90057 38.5568 9.73864 39.4773 9.73864C40.7727 9.73864 41.7898 10.0227 42.5284 10.5909C43.2727 11.1591 43.8011 11.9091 44.1136 12.8409ZM52.8686 23.2727C51.6072 23.2727 50.5192 22.9943 49.6044 22.4375C48.6953 21.875 47.9936 21.0909 47.4993 20.0852C47.0107 19.0739 46.7663 17.8977 46.7663 16.5568C46.7663 15.2159 47.0107 14.0341 47.4993 13.0114C47.9936 11.983 48.6811 11.1818 49.5618 10.608C50.4482 10.0284 51.4822 9.73864 52.6641 9.73864C53.3459 9.73864 54.0192 9.85227 54.6839 10.0795C55.3487 10.3068 55.9538 10.6761 56.4993 11.1875C57.0447 11.6932 57.4794 12.3636 57.8033 13.1989C58.1271 14.0341 58.2891 15.0625 58.2891 16.2841V17.1364H48.1982V15.3977H56.2436C56.2436 14.6591 56.0959 14 55.8004 13.4205C55.5107 12.8409 55.0959 12.3835 54.5561 12.0483C54.022 11.7131 53.3913 11.5455 52.6641 11.5455C51.8629 11.5455 51.1697 11.7443 50.5845 12.142C50.005 12.5341 49.5589 13.0455 49.2464 13.6761C48.9339 14.3068 48.7777 14.983 48.7777 15.7045V16.8636C48.7777 17.8523 48.9482 18.6903 49.2891 19.3778C49.6357 20.0597 50.1158 20.5795 50.7294 20.9375C51.343 21.2898 52.0561 21.4659 52.8686 21.4659C53.397 21.4659 53.8743 21.392 54.3004 21.2443C54.7322 21.0909 55.1044 20.8636 55.4169 20.5625C55.7294 20.2557 55.9709 19.875 56.1413 19.4205L58.0845 19.9659C57.88 20.625 57.5362 21.2045 57.0533 21.7045C56.5703 22.1989 55.9737 22.5852 55.2635 22.8636C54.5533 23.1364 53.755 23.2727 52.8686 23.2727ZM61.3487 9.90909H63.3601V23.9545C63.3601 24.7614 63.2209 25.4602 62.9425 26.0511C62.6697 26.642 62.255 27.0994 61.6982 27.4233C61.147 27.7472 60.451 27.9091 59.6101 27.9091C59.5419 27.9091 59.4737 27.9091 59.4055 27.9091C59.3374 27.9091 59.2692 27.9091 59.201 27.9091V26.0341C59.2692 26.0341 59.3317 26.0341 59.3885 26.0341C59.4453 26.0341 59.5078 26.0341 59.576 26.0341C60.1896 26.0341 60.6385 25.8523 60.9226 25.4886C61.2067 25.1307 61.3487 24.6193 61.3487 23.9545V9.90909ZM62.3374 7.72727C61.9453 7.72727 61.6072 7.59375 61.3232 7.3267C61.0447 7.05966 60.9055 6.73864 60.9055 6.36364C60.9055 5.98864 61.0447 5.66761 61.3232 5.40057C61.6072 5.13352 61.9453 5 62.3374 5C62.7294 5 63.0646 5.13352 63.343 5.40057C63.6271 5.66761 63.7692 5.98864 63.7692 6.36364C63.7692 6.73864 63.6271 7.05966 63.343 7.3267C63.0646 7.59375 62.7294 7.72727 62.3374 7.72727ZM72.3622 23.2727C71.1804 23.2727 70.1435 22.9915 69.2514 22.429C68.3651 21.8665 67.6719 21.0795 67.1719 20.0682C66.6776 19.0568 66.4304 17.875 66.4304 16.5227C66.4304 15.1591 66.6776 13.9687 67.1719 12.9517C67.6719 11.9347 68.3651 11.1449 69.2514 10.5824C70.1435 10.0199 71.1804 9.73864 72.3622 9.73864C73.544 9.73864 74.5781 10.0199 75.4645 10.5824C76.3565 11.1449 77.0497 11.9347 77.544 12.9517C78.044 13.9687 78.294 15.1591 78.294 16.5227C78.294 17.875 78.044 19.0568 77.544 20.0682C77.0497 21.0795 76.3565 21.8665 75.4645 22.429C74.5781 22.9915 73.544 23.2727 72.3622 23.2727ZM72.3622 21.4659C73.2599 21.4659 73.9986 21.2358 74.5781 20.7756C75.1577 20.3153 75.5866 19.7102 75.8651 18.9602C76.1435 18.2102 76.2827 17.3977 76.2827 16.5227C76.2827 15.6477 76.1435 14.8324 75.8651 14.0767C75.5866 13.321 75.1577 12.7102 74.5781 12.2443C73.9986 11.7784 73.2599 11.5455 72.3622 11.5455C71.4645 11.5455 70.7259 11.7784 70.1463 12.2443C69.5668 12.7102 69.1378 13.321 68.8594 14.0767C68.581 14.8324 68.4418 15.6477 68.4418 16.5227C68.4418 17.3977 68.581 18.2102 68.8594 18.9602C69.1378 19.7102 69.5668 20.3153 70.1463 20.7756C70.7259 21.2358 71.4645 21.4659 72.3622 21.4659ZM83.3757 15.125V23H81.3643V9.90909H83.3075V11.9545H83.478C83.7848 11.2898 84.2507 10.7557 84.8757 10.3523C85.5007 9.94318 86.3075 9.73864 87.2962 9.73864C88.1825 9.73864 88.9581 9.92045 89.6229 10.2841C90.2876 10.642 90.8047 11.1875 91.174 11.9205C91.5433 12.6477 91.728 13.5682 91.728 14.6818V23H89.7166V14.8182C89.7166 13.7898 89.4496 12.9886 88.9155 12.4148C88.3814 11.8352 87.6484 11.5455 86.7166 11.5455C86.0746 11.5455 85.5007 11.6847 84.995 11.9631C84.495 12.2415 84.1001 12.6477 83.8104 13.1818C83.5206 13.7159 83.3757 14.3636 83.3757 15.125ZM100.688 28.1818C99.7159 28.1818 98.8807 28.0568 98.1818 27.8068C97.483 27.5625 96.9006 27.2386 96.4347 26.8352C95.9744 26.4375 95.608 26.0114 95.3352 25.5568L96.9375 24.4318C97.1193 24.6705 97.3494 24.9432 97.6278 25.25C97.9063 25.5625 98.2869 25.8324 98.7699 26.0597C99.2585 26.2926 99.8977 26.4091 100.688 26.4091C101.744 26.4091 102.616 26.1534 103.304 25.642C103.991 25.1307 104.335 24.3295 104.335 23.2386V20.5795H104.165C104.017 20.8182 103.807 21.1136 103.534 21.4659C103.267 21.8125 102.881 22.1222 102.375 22.3949C101.875 22.6619 101.199 22.7955 100.347 22.7955C99.2898 22.7955 98.3409 22.5455 97.5 22.0455C96.6648 21.5455 96.0028 20.8182 95.5142 19.8636C95.0313 18.9091 94.7898 17.75 94.7898 16.3864C94.7898 15.0455 95.0256 13.8778 95.4972 12.8835C95.9688 11.8835 96.625 11.1108 97.4659 10.5653C98.3068 10.0142 99.2784 9.73864 100.381 9.73864C101.233 9.73864 101.909 9.88068 102.409 10.1648C102.915 10.4432 103.301 10.7614 103.568 11.1193C103.841 11.4716 104.051 11.7614 104.199 11.9886H104.403V9.90909H106.347V23.375C106.347 24.5 106.091 25.4148 105.58 26.1193C105.074 26.8295 104.392 27.3494 103.534 27.679C102.682 28.0142 101.733 28.1818 100.688 28.1818ZM100.619 20.9886C101.426 20.9886 102.108 20.804 102.665 20.4347C103.222 20.0653 103.645 19.5341 103.935 18.8409C104.224 18.1477 104.369 17.3182 104.369 16.3523C104.369 15.4091 104.227 14.5767 103.943 13.8551C103.659 13.1335 103.239 12.5682 102.682 12.1591C102.125 11.75 101.438 11.5455 100.619 11.5455C99.767 11.5455 99.0568 11.7614 98.4886 12.1932C97.9261 12.625 97.5028 13.2045 97.2188 13.9318C96.9403 14.6591 96.8011 15.4659 96.8011 16.3523C96.8011 17.2614 96.9432 18.0653 97.2273 18.7642C97.517 19.4574 97.9432 20.0028 98.5057 20.4006C99.0739 20.7926 99.7784 20.9886 100.619 20.9886ZM112.04 15.125V23H110.028V5.54545H112.04V11.9545H112.21C112.517 11.2784 112.977 10.7415 113.591 10.3438C114.21 9.94034 115.034 9.73864 116.062 9.73864C116.955 9.73864 117.736 9.91761 118.406 10.2756C119.077 10.6278 119.597 11.1705 119.966 11.9034C120.341 12.6307 120.528 13.5568 120.528 14.6818V23H118.517V14.8182C118.517 13.7784 118.247 12.9744 117.707 12.4062C117.173 11.8324 116.432 11.5455 115.483 11.5455C114.824 11.5455 114.233 11.6847 113.71 11.9631C113.193 12.2415 112.784 12.6477 112.483 13.1818C112.188 13.7159 112.04 14.3636 112.04 15.125ZM132.458 17.6477V9.90909H134.469V23H132.458V20.7841H132.322C132.015 21.4489 131.538 22.0142 130.89 22.4801C130.242 22.9403 129.424 23.1705 128.435 23.1705C127.617 23.1705 126.89 22.9915 126.254 22.6335C125.617 22.2699 125.117 21.7244 124.754 20.9972C124.39 20.2642 124.208 19.3409 124.208 18.2273V9.90909H126.219V18.0909C126.219 19.0455 126.487 19.8068 127.021 20.375C127.56 20.9432 128.248 21.2273 129.083 21.2273C129.583 21.2273 130.092 21.0994 130.609 20.8438C131.131 20.5881 131.569 20.196 131.921 19.6676C132.279 19.1392 132.458 18.4659 132.458 17.6477ZM143.097 23.2727C142.006 23.2727 141.043 22.9972 140.207 22.446C139.372 21.8892 138.719 21.1051 138.247 20.0938C137.776 19.0767 137.54 17.875 137.54 16.4886C137.54 15.1136 137.776 13.9205 138.247 12.9091C138.719 11.8977 139.375 11.1165 140.216 10.5653C141.057 10.0142 142.028 9.73864 143.131 9.73864C143.983 9.73864 144.656 9.88068 145.151 10.1648C145.651 10.4432 146.031 10.7614 146.293 11.1193C146.56 11.4716 146.767 11.7614 146.915 11.9886H147.085V5.54545H149.097V23H147.153V20.9886H146.915C146.767 21.2273 146.557 21.5284 146.284 21.892C146.011 22.25 145.622 22.571 145.116 22.8551C144.611 23.1335 143.938 23.2727 143.097 23.2727ZM143.369 21.4659C144.176 21.4659 144.858 21.2557 145.415 20.8352C145.972 20.4091 146.395 19.821 146.685 19.071C146.974 18.3153 147.119 17.4432 147.119 16.4545C147.119 15.4773 146.977 14.6222 146.693 13.8892C146.409 13.1506 145.989 12.5767 145.432 12.1676C144.875 11.7528 144.188 11.5455 143.369 11.5455C142.517 11.5455 141.807 11.7642 141.239 12.2017C140.676 12.6335 140.253 13.2216 139.969 13.9659C139.69 14.7045 139.551 15.5341 139.551 16.4545C139.551 17.3864 139.693 18.233 139.977 18.9943C140.267 19.75 140.693 20.3523 141.256 20.8011C141.824 21.2443 142.528 21.4659 143.369 21.4659Z" fill="white"/>
<path d="M24.625 10.3478C22.7125 10.3478 21.25 11.8174 21.25 13.7391V13.9652L19 14.7565C18.325 13.4 16.975 12.3826 15.4 12.1565V9.66957C16.75 9.33043 17.875 7.97391 17.875 6.3913C17.875 4.46957 16.4125 3 14.5 3C12.5875 3 11.125 4.46957 11.125 6.3913C11.125 7.97391 12.25 9.33043 13.6 9.66957V12.1565C12.1375 12.3826 10.7875 13.4 10 14.7565L7.75 13.9652V13.7391C7.75 11.8174 6.2875 10.3478 4.375 10.3478C2.4625 10.3478 1 11.8174 1 13.7391C1 15.6609 2.4625 17.1304 4.375 17.1304C5.6125 17.1304 6.625 16.4522 7.1875 15.5478L9.4375 16.3391C9.2125 17.8087 9.6625 19.3913 10.675 20.5217L9.1 22.5565C8.65 22.3304 8.2 22.2174 7.75 22.2174C5.8375 22.2174 4.375 23.687 4.375 25.6087C4.375 27.5304 5.8375 29 7.75 29C9.6625 29 11.125 27.5304 11.125 25.6087C11.125 24.8174 10.9 24.1391 10.45 23.5739L12.025 21.5391C13.6 22.4435 15.4 22.4435 16.975 21.5391L18.55 23.5739C18.1 24.1391 17.875 24.8174 17.875 25.6087C17.875 27.5304 19.3375 29 21.25 29C23.1625 29 24.625 27.5304 24.625 25.6087C24.625 23.687 23.1625 22.2174 21.25 22.2174C20.8 22.2174 20.2375 22.3304 19.9 22.5565L18.325 20.5217C19.3375 19.3913 19.7875 17.8087 19.5625 16.3391L21.8125 15.5478C22.375 16.4522 23.5 17.1304 24.625 17.1304C26.5375 17.1304 28 15.6609 28 13.7391C28 11.8174 26.5375 10.3478 24.625 10.3478ZM4.375 14.8696C3.8125 14.8696 3.25 14.4174 3.25 13.7391C3.25 13.0609 3.8125 12.6087 4.375 12.6087C4.9375 12.6087 5.5 13.0609 5.5 13.7391C5.5 14.4174 4.9375 14.8696 4.375 14.8696ZM7.75 26.7391C7.075 26.7391 6.625 26.1739 6.625 25.6087C6.625 25.0435 7.075 24.4783 7.75 24.4783C8.425 24.4783 8.875 25.0435 8.875 25.6087C8.875 26.1739 8.425 26.7391 7.75 26.7391ZM13.375 6.3913C13.375 5.82609 13.825 5.26087 14.5 5.26087C15.175 5.26087 15.625 5.82609 15.625 6.3913C15.625 6.95652 15.175 7.52174 14.5 7.52174C13.825 7.52174 13.375 6.95652 13.375 6.3913ZM14.5 19.9565C12.925 19.9565 11.6875 18.713 11.6875 17.1304C11.6875 15.5478 12.925 14.3043 14.5 14.3043C16.075 14.3043 17.3125 15.5478 17.3125 17.1304C17.3125 18.713 16.075 19.9565 14.5 19.9565ZM21.25 24.4783C21.8125 24.4783 22.375 25.0435 22.375 25.6087C22.375 26.1739 21.8125 26.7391 21.25 26.7391C20.6875 26.7391 20.125 26.1739 20.125 25.6087C20.125 25.0435 20.6875 24.4783 21.25 24.4783ZM24.625 14.8696C24.0625 14.8696 23.5 14.4174 23.5 13.7391C23.5 13.0609 24.0625 12.6087 24.625 12.6087C25.1875 12.6087 25.75 13.0609 25.75 13.7391C25.75 14.4174 25.1875 14.8696 24.625 14.8696Z" fill="white"/>
</svg>
